<!-- Generated by IcoMoon.io -->
<svg version="1.1" xmlns="http://www.w3.org/2000/svg" width="32" height="32" viewBox="0 0 32 32">
<path d="M28.8 3.2h-25.6c-1.76 0-3.184 1.44-3.184 3.2l-0.016 19.2c0 1.76 1.44 3.2 3.2 3.2h25.6c1.76 0 3.2-1.44 3.2-3.2v-19.2c0-1.76-1.44-3.2-3.2-3.2zM28.16 10l-11.312 7.072c-0.512 0.32-1.184 0.32-1.696 0l-11.312-7.072c-0.4-0.256-0.64-0.688-0.64-1.152 0-1.072 1.168-1.712 2.080-1.152l10.72 6.704 10.72-6.704c0.912-0.56 2.080 0.080 2.080 1.152 0 0.464-0.24 0.896-0.64 1.152z"></path>
</svg>
